<!-- Generated by IcoMoon.io -->
<svg version="1.1" xmlns="http://www.w3.org/2000/svg" width="146" height="60" viewBox="0 0 146 60">
<title>GemLog</title>
<path fill="#212121" d="M0 0h145.877v60h-145.877v-60z"></path>
<path fill="#fff" d="M107.566 41.568v-3.198h-3.047c-1.457 0-1.571-1.16-1.571-2.741v-10.369h4.157v-3.198h-4.157v-7.332h-4.28v21.958c0 3.275 0.914 4.879 5.244 4.883h3.654z"></path>
<path fill="#f58220" d="M137.655 24.48c-3.654-3.284-5.162-3.869-6.665-3.965-1.503 0.096-3.001 0.681-6.669 3.965 3.28-3.654 3.869-5.171 3.96-6.674-0.091-1.494-0.681-3.001-3.96-6.665 3.654 3.275 5.166 3.869 6.669 3.956 1.503-0.091 3.001-0.685 6.665-3.956-3.275 3.654-3.869 5.171-3.96 6.665 0.096 1.503 0.685 3.006 3.96 6.674z"></path>
<path fill="#fff" d="M117.026 21.552c-6.217 0-9.775 4.271-9.775 10.196s3.558 10.223 9.775 10.223 9.789-4.266 9.789-10.223-3.563-10.196-9.789-10.196zM122.531 37.261h-10.995v-10.995h10.995z"></path>
<path fill="#fff" d="M92.062 14.732v23.845h-2.334v-11.977c-0.356-3.654-4.111-5.048-7.729-5.048-4.271 0-8.506 1.462-8.802 6.45h4.271c0.187-2.101 1.877-3.074 4.271-3.074 1.722 0 4.011 0.411 4.011 2.622 0 2.512-2.741 2.174-5.806 2.741-3.006 0.343-6.185 0.95-7.158 3.951v-6.171c0-4.719-2.398-6.518-6.487-6.518-2.809 0-4.646 1.238-6.071 3.225-0.863-2.211-3.074-3.225-5.436-3.225-3.074 0-4.682 1.311-5.938 3.225h-0.114v-2.695h-4.065v5.847c-1.224-3.654-4.353-6.395-8.656-6.395-4.687 0.018-7.935 3.134-8.994 7.245v-6.701h-4.276v2.659h-0.073c-1.087-2.17-3.293-3.198-5.733-3.198-5.523 0.014-8.77 4.499-8.77 9.721 0 5.545 2.549 10.196 8.679 10.196 0.004 0 0.008 0 0.012 0 2.48 0 4.642-1.36 5.781-3.375l0.017-0.033h0.073v2.96c0 3.198-1.535 4.947-4.984 4.947-2.174 0-4.111-0.416-4.65-2.85h-4.253c0.375 4.536 4.76 6.039 8.679 6.039 6.107 0 9.52-2.887 9.52-8.679v-5.45c1.037 4.198 4.207 6.957 9.109 6.957 3.947 0 7.341-2.051 8.542-5.769v5.249h4.271v-11.502c0-3.225 2.024-5.025 4.235-5.025 2.585 0 3.412 1.425 3.412 4.079v12.448h4.271v-11.356c0-3.262 1.242-5.171 4.111-5.171 3.339 0 3.526 2.133 3.526 5.203v11.324h4.271v-3.248c0.863 2.526 3.485 3.773 6.331 3.773 2.147 0 4.678-0.635 6.395-2.078v0c0 0.002 0 0.004 0 0.006 0 0.842 0.662 1.53 1.495 1.57l0.004 0h9.337v-26.741zM17.541 38.078c-3.563 0-5.093-3.22-5.093-6.395s1.306-6.756 5.093-6.756c3.714 0 5.207 3.074 5.207 6.395s-1.425 6.756-5.207 6.756zM36.018 24.927c2.882 0 4.719 2.435 4.869 5.134h-9.967c0.11-2.891 2.138-5.134 5.098-5.134zM44.675 35.379h-3.823c-0.749 2.138-2.252 3.23-4.719 3.23-3.563 0-5.212-2.7-5.212-5.737h13.754zM85.485 34.922c0 2.7-2.919 3.654-4.796 3.654-1.503 0-3.933-0.562-3.933-2.476 0-2.247 1.654-2.923 3.485-3.225s3.933-0.301 5.244-1.16z"></path>
</svg>
