<?xml version="1.0" encoding="utf-8"?>
<!-- Generator: Adobe Illustrator 22.0.1, SVG Export Plug-In . SVG Version: 6.00 Build 0)  -->
<svg version="1.1" id="Layer_1" xmlns="http://www.w3.org/2000/svg" xmlns:xlink="http://www.w3.org/1999/xlink" x="0px" y="0px"
	 viewBox="0 0 213 78.7" style="enable-background:new 0 0 213 78.7;" xml:space="preserve">
<style type="text/css">
	.st0{fill:#F08126;}
	.st1{fill:#1D1E1C;}
</style>
<g>
	<g>
		<g>
			<path class="st0" d="M64.1,67.4c0,1.1,1.1,1.5,2.1,1.5c0.8,0,1.9-0.2,1.9-1.1c0-1-1.3-1.1-2.6-1.4c-1.3-0.3-2.6-0.7-2.6-2.1
				c0-1.5,1.6-2.2,3-2.2c1.8,0,3.2,0.5,3.3,2.4h-1.3c-0.1-1-1-1.3-1.8-1.3c-0.8,0-1.7,0.2-1.7,1c0,0.9,1.4,1,2.6,1.3
				c1.3,0.3,2.6,0.7,2.6,2.2c0,1.8-1.8,2.4-3.4,2.4c-1.8,0-3.3-0.7-3.4-2.6H64.1z"/>
			<path class="st0" d="M77.9,67.4c-0.4,1.7-1.6,2.6-3.4,2.6c-2.5,0-3.7-1.7-3.8-4c0-2.3,1.6-3.9,3.7-3.9c2.8,0,3.7,2.5,3.6,4.3h-6
				c0,1.3,0.7,2.5,2.5,2.5c1.1,0,1.8-0.5,2.1-1.5H77.9z M76.7,65.3c-0.1-1.2-1-2.1-2.3-2.1c-1.4,0-2.2,1-2.3,2.1H76.7z"/>
			<path class="st0" d="M85,64.7c-0.2-1-0.9-1.5-2-1.5c-1.9,0-2.5,1.4-2.5,3c0,1.4,0.7,2.8,2.3,2.8c1.3,0,2-0.7,2.2-1.8h1.3
				c-0.3,1.8-1.5,2.9-3.5,2.9c-2.4,0-3.7-1.6-3.7-3.9c0-2.3,1.2-4.1,3.8-4.1c1.8,0,3.3,0.8,3.4,2.6H85z"/>
			<path class="st0" d="M94.6,69.8h-1.2v-1.2h0c-0.6,0.9-1.5,1.4-2.6,1.4c-2.1,0-2.7-1.1-2.7-2.8v-5h1.3v5.1c0,0.9,0.6,1.5,1.6,1.5
				c1.6,0,2.4-1,2.4-2.4v-4.3h1.3V69.8z"/>
			<path class="st0" d="M96.7,62.3h1.2v1.6h0c0.6-1.2,1.5-1.8,2.9-1.8v1.3c-2.1,0-2.9,1.1-2.9,3.1v3.4h-1.3V62.3z"/>
			<path class="st0" d="M103.4,60.9h-1.3v-1.5h1.3V60.9z M102.1,62.3h1.3v7.6h-1.3V62.3z"/>
			<path class="st0" d="M107.4,62.3h1.6v1.1h-1.6v4.7c0,0.6,0.2,0.7,1,0.7h0.6v1.1h-1c-1.4,0-1.9-0.3-1.9-1.7v-4.8h-1.4v-1.1h1.4V60
				h1.3V62.3z"/>
			<path class="st0" d="M113.7,70.8c-0.6,1.5-1.1,2-2.3,2c-0.3,0-0.6,0-0.9-0.1v-1.1c0.2,0.1,0.5,0.2,0.8,0.2c0.5,0,0.8-0.2,1.1-0.7
				l0.5-1.3l-3.2-7.5h1.5l2.3,6.2h0l2.2-6.2h1.4L113.7,70.8z"/>
			<path class="st0" d="M124.4,62.3h1.6v1.1h-1.6v4.7c0,0.6,0.2,0.7,1,0.7h0.6v1.1h-1c-1.4,0-1.9-0.3-1.9-1.7v-4.8h-1.4v-1.1h1.4V60
				h1.3V62.3z"/>
			<path class="st0" d="M131,62.1c2.5,0,3.9,1.7,3.9,4c0,2.2-1.3,4-3.9,4c-2.5,0-3.9-1.7-3.9-4C127.2,63.8,128.5,62.1,131,62.1z
				 M131,68.9c1.4,0,2.5-1,2.5-2.9c0-1.8-1.1-2.9-2.5-2.9c-1.4,0-2.5,1-2.5,2.9C128.6,67.9,129.7,68.9,131,68.9z"/>
			<path class="st0" d="M140.8,59.4h1.3v3.9h0c0.4-0.8,1.5-1.2,2.5-1.2c2.5,0,3.7,1.8,3.7,4c0,2.1-1.2,3.9-3.6,3.9
				c-0.8,0-2-0.3-2.6-1.2h0v1h-1.3V59.4z M144.5,63.2c-1.8,0-2.4,1.4-2.4,2.9c0,1.5,0.7,2.9,2.5,2.9c1.8,0,2.4-1.5,2.4-2.9
				C147,64.6,146.2,63.2,144.5,63.2z"/>
			<path class="st0" d="M156.8,67.4c-0.4,1.7-1.6,2.6-3.4,2.6c-2.5,0-3.7-1.7-3.8-4c0-2.3,1.6-3.9,3.7-3.9c2.8,0,3.7,2.5,3.6,4.3h-6
				c0,1.3,0.7,2.5,2.5,2.5c1.1,0,1.8-0.5,2.1-1.5H156.8z M155.6,65.3c-0.1-1.2-1-2.1-2.3-2.1c-1.4,0-2.2,1-2.3,2.1H155.6z"/>
			<path class="st0" d="M163.2,63.4h-1.3v-1.1h1.3v-1.1c0-1.2,0.8-1.9,2.2-1.9c0.2,0,0.6,0,0.8,0.1v1.1c-0.2-0.1-0.5-0.1-0.7-0.1
				c-0.6,0-1,0.2-1,0.8v1.1h1.5v1.1h-1.5v6.5h-1.3V63.4z"/>
			<path class="st0" d="M167.4,62.3h1.2v1.6h0c0.6-1.2,1.5-1.8,2.9-1.8v1.3c-2.1,0-2.9,1.1-2.9,3.1v3.4h-1.3V62.3z"/>
			<path class="st0" d="M179.2,67.4c-0.4,1.7-1.6,2.6-3.4,2.6c-2.5,0-3.7-1.7-3.8-4c0-2.3,1.6-3.9,3.7-3.9c2.8,0,3.7,2.5,3.6,4.3h-6
				c0,1.3,0.7,2.5,2.5,2.5c1.1,0,1.8-0.5,2.1-1.5H179.2z M178,65.3c-0.1-1.2-1-2.1-2.3-2.1c-1.4,0-2.2,1-2.3,2.1H178z"/>
			<path class="st0" d="M187.7,67.4c-0.4,1.7-1.6,2.6-3.4,2.6c-2.5,0-3.7-1.7-3.8-4c0-2.3,1.6-3.9,3.7-3.9c2.8,0,3.7,2.5,3.6,4.3h-6
				c0,1.3,0.7,2.5,2.5,2.5c1.1,0,1.8-0.5,2.1-1.5H187.7z M186.4,65.3c-0.1-1.2-1-2.1-2.3-2.1c-1.4,0-2.2,1-2.3,2.1H186.4z"/>
		</g>
	</g>
	<g>
		<path class="st1" d="M159.9,52.5v-4.9h-4.7c-2.2,0-2.4-1.8-2.4-4.2V27.4h6.4v-4.9h-6.4V11.2h-6.6v33.8c0,5,1.4,7.5,8.1,7.5v0
			H159.9z"/>
		<path class="st0" d="M206.2,26.2c-5.6-5-7.9-6-10.3-6.1c-2.3,0.1-4.6,1-10.3,6.1c5-5.6,6-8,6.1-10.3c-0.1-2.3-1-4.6-6.1-10.3
			c5.6,5,7.9,5.9,10.3,6.1c2.3-0.1,4.6-1.1,10.3-6.1c-5,5.6-6,7.9-6.1,10.3C200.2,18.2,201.1,20.5,206.2,26.2z"/>
		<path class="st1" d="M174.4,21.7c-9.6,0-15,6.6-15,15.7c0,9.2,5.5,15.7,15,15.7c9.6,0,15.1-6.6,15.1-15.7
			C189.5,28.2,184,21.7,174.4,21.7z M182.9,45.8H166V28.9h16.9V45.8z"/>
		<path class="st1" d="M136,11.2v36.7h-3.6V29.4c-0.5-5.6-6.3-7.8-11.9-7.8c-6.6,0-13.1,2.2-13.5,9.9h6.6c0.3-3.2,2.9-4.7,6.6-4.7
			c2.7,0,6.2,0.6,6.2,4c0,3.9-4.2,3.3-8.9,4.2c-4.6,0.5-9.5,1.5-11,6.1v-9.5c0-7.3-3.7-10-10-10c-4.3,0-7.1,1.9-9.3,5
			c-1.3-3.4-4.7-5-8.4-5c-4.7,0-7.2,2-9.2,5h-0.2v-4.1h-6.2v9c-1.9-5.6-6.7-9.8-13.3-9.8c-7.2,0-12.2,4.8-13.8,11.1V22.5h-6.6v4.1
			h-0.1c-1.7-3.3-5.1-4.9-8.8-4.9C12,21.7,7,28.6,7,36.6c0,8.5,3.9,15.7,13.4,15.7c3.7,0,7.1-2,8.9-5.2h0.1v4.6
			c0,4.9-2.4,7.6-7.7,7.6c-3.3,0-6.3-0.6-7.2-4.4H8c0.6,7,7.3,9.3,13.3,9.3c9.4,0,14.6-4.4,14.6-13.4v-8.3c1.6,6.5,6.5,10.7,14,10.7
			c6.1,0,11.3-3.2,13.1-8.9v8.1h6.6V34.6c0-5,3.1-7.7,6.5-7.7c4,0,5.2,2.2,5.2,6.3v19.1H88V34.8c0-5,1.9-7.9,6.3-7.9
			c5.1,0,5.4,3.3,5.4,8v17.4h6.6v-5c1.3,3.9,5.4,5.8,9.7,5.8c3.3,0,7.2-1,9.8-3.2v0l0,0c0,1.3,1,2.4,2.3,2.4h14.4V11.2H136z
			 M21.4,47.1c-5.5,0-7.8-5-7.8-9.9c0-5,2-10.4,7.8-10.4c5.7,0,8,4.7,8,9.9C29.4,41.8,27.2,47.1,21.4,47.1z M49.8,26.8
			c4.4,0,7.3,3.7,7.5,7.9H42C42.2,30.3,45.3,26.8,49.8,26.8z M63.1,42.9h-5.9c-1.2,3.3-3.5,5-7.3,5c-5.5,0-8-4.1-8-8.8h21.2V42.9z
			 M125.9,42.2c0,4.1-4.5,5.6-7.4,5.6c-2.3,0-6.1-0.9-6.1-3.8c0-3.5,2.5-4.5,5.4-5c2.9-0.5,6.1-0.5,8.1-1.8V42.2z"/>
	</g>
</g>
</svg>
