<?xml version="1.0" encoding="utf-8"?>
<!-- Generator: Adobe Illustrator 23.1.0, SVG Export Plug-In . SVG Version: 6.00 Build 0)  -->
<svg version="1.1" id="Calque_1" xmlns="http://www.w3.org/2000/svg" xmlns:xlink="http://www.w3.org/1999/xlink" x="0px" y="0px"
	 viewBox="0 0 306.1 105.4" style="enable-background:new 0 0 306.1 105.4;" xml:space="preserve">
<style type="text/css">
	.st0{display:none;fill:#F58220;enable-background:new    ;}
	.st1{font-family:'ArialMT';}
	.st2{font-size:23.7562px;}
	.st3{fill:#F58220;}
</style>
<image style="display:none;overflow:visible;enable-background:new    ;" width="1197" height="415" xlink:href="E7057E1F.jpeg"  transform="matrix(0.2554 0 0 0.2554 7.1305 3.0915)">
</image>
<text transform="matrix(1 0 0 1 93.5902 103.6301)" class="st0 st1 st2">a Thales company</text>
<g>
	<g>
		<path d="M234.5,72.2v-7.6h-7.2c-3.4,0.1-3.7-2.7-3.7-6.5V33.9h9.8v-7.5h-9.8V9.2h-10v51.6c0,7.7,2.1,11.5,12.3,11.5v0L234.5,72.2
			L234.5,72.2z"/>
		<path class="st3" d="M305.2,32.1c-8.6-7.7-12.1-9.1-15.6-9.3c-3.5,0.2-7,1.6-15.7,9.3c7.7-8.6,9.1-12.2,9.3-15.7
			c-0.2-3.5-1.6-7-9.3-15.7c8.6,7.7,12.1,9.1,15.7,9.3c3.5-0.2,7-1.6,15.6-9.3c-7.7,8.6-9.1,12.1-9.3,15.7
			C296.1,19.9,297.5,23.5,305.2,32.1z"/>
		<path d="M256.7,25.2c-14.6,0-23,10-23,24c0,14,8.4,24,23,24c14.6,0,23-10,23-24C279.7,35.2,271.4,25.2,256.7,25.2z M269.7,62.1
			h-25.8V36.3h25.8V62.1z"/>
		<path d="M198.1,9.2v56h-5.5V37c-0.8-8.6-9.7-11.9-18.1-11.9c-10,0-20,3.4-20.7,15.2h10c0.4-4.9,4.4-7.2,10-7.2
			c4.1,0,9.4,1,9.4,6.2c0,5.9-6.4,5.1-13.6,6.4c-7.1,0.8-14.5,2.2-16.8,9.3V40.5c0-11.1-5.6-15.3-15.2-15.3
			c-6.6,0-10.9,2.9-14.3,7.6c-2-5.2-7.2-7.6-12.8-7.6c-7.2,0-11,3.1-14,7.6h-0.3v-6.3h-9.5v13.7c-2.9-8.6-10.2-15-20.3-15
			c-11,0-18.6,7.3-21.1,17V26.4h-10v6.2h-0.2c-2.5-5.1-7.7-7.5-13.5-7.5C8.7,25.2,1.1,35.8,1.1,48c0,13,6,23.9,20.4,23.9
			c5.6,0,10.8-3,13.6-8h0.2v6.9c0,7.5-3.6,11.6-11.7,11.6c-5.1,0-9.7-1-10.9-6.7h-10C3.5,86.4,13.8,90,23,90
			c14.3,0,22.4-6.8,22.4-20.4V56.8c2.4,9.9,9.9,16.3,21.4,16.3c9.3,0,17.2-4.8,20.1-13.6v12.3h10v-27c0-7.6,4.8-11.8,9.9-11.8
			c6.1,0,8,3.3,8,9.6v29.2h10V45.3c0-7.7,2.9-12.1,9.7-12.1c7.8,0,8.3,5,8.3,12.2v26.6h10v-7.6c2,5.9,8.2,8.9,14.9,8.9
			c5,0,11-1.5,15-4.9v0l0,0c0,2,1.6,3.6,3.5,3.7h21.9V9.2H198.1z M23.1,64c-8.4,0-12-7.6-12-15.1c0-7.6,3.1-15.8,12-15.8
			c8.7,0,12.2,7.2,12.2,15.1C35.3,55.9,32,64,23.1,64z M66.5,33.1c6.8,0,11.1,5.7,11.4,12.1H54.5C54.8,38.4,59.5,33.1,66.5,33.1z
			 M86.8,57.7h-9c-1.8,5-5.3,7.6-11.1,7.6c-8.4,0-12.2-6.3-12.2-13.5h32.3V57.7z M182.6,56.6c0,6.3-6.9,8.6-11.3,8.6
			c-3.5,0-9.2-1.3-9.2-5.8c0-5.3,3.9-6.9,8.2-7.6c4.4-0.8,9.2-0.7,12.3-2.7V56.6z"/>
	</g>
	<g>
		<path class="st3" d="M99.2,99.9c-0.4,0.2-0.8,0.3-1.4,0.3c-1.1,0-1.7-0.6-1.7-1.9c-1.1,1.3-2.6,1.9-4.3,1.9c-2.2,0-4.1-1-4.1-3.4
			c0-2.8,2.1-3.4,4.2-3.8c2.2-0.4,4.1-0.3,4.1-1.8c0-1.8-1.4-2-2.7-2c-1.7,0-3,0.5-3.1,2.3h-2c0.1-3,2.5-4.1,5.2-4.1
			c2.2,0,4.6,0.5,4.6,3.4V97c0,0.9,0,1.4,0.6,1.4c0.2,0,0.4,0,0.6-0.1L99.2,99.9L99.2,99.9z M95.9,93.6c-0.8,0.6-2.3,0.6-3.7,0.8
			c-1.3,0.2-2.5,0.7-2.5,2.2c0,1.3,1.1,1.8,2.4,1.8c2.7,0,3.8-1.7,3.8-2.8C95.9,95.6,95.9,93.6,95.9,93.6z"/>
		<path class="st3" d="M111.9,84.9h-5.6V83h13.6v1.9h-5.6v15.1h-2.3L111.9,84.9L111.9,84.9z"/>
		<path class="st3" d="M121.3,82.9h2v6.5h0.1c0.7-1.5,2.4-2.1,3.9-2.1c3.2,0,4.2,1.8,4.2,4.5v8.1h-2v-8.3c0-1.5-0.9-2.5-2.5-2.5
			c-2.4,0-3.6,1.6-3.6,3.8v6.9h-2L121.3,82.9L121.3,82.9z"/>
		<path class="st3" d="M145.4,99.9c-0.4,0.2-0.8,0.3-1.4,0.3c-1.1,0-1.7-0.6-1.7-1.9c-1.1,1.3-2.6,1.9-4.3,1.9c-2.2,0-4.1-1-4.1-3.4
			c0-2.8,2.1-3.4,4.2-3.8c2.2-0.4,4.1-0.3,4.1-1.8c0-1.8-1.4-2-2.7-2c-1.7,0-3,0.5-3.1,2.3h-2c0.1-3,2.5-4.1,5.2-4.1
			c2.2,0,4.6,0.5,4.6,3.4V97c0,0.9,0,1.4,0.6,1.4c0.2,0,0.4,0,0.6-0.1L145.4,99.9L145.4,99.9z M142.1,93.6c-0.8,0.6-2.3,0.6-3.7,0.8
			c-1.3,0.2-2.5,0.7-2.5,2.2c0,1.3,1.1,1.8,2.4,1.8c2.7,0,3.8-1.7,3.8-2.8V93.6z"/>
		<path class="st3" d="M147.4,82.9h2v17h-2V82.9z"/>
		<path class="st3" d="M163,96c-0.6,2.7-2.5,4.2-5.3,4.2c-3.9,0-5.8-2.7-5.9-6.5c0-3.7,2.4-6.4,5.8-6.4c4.4,0,5.7,4.1,5.6,7H154
			c-0.1,2.1,1.1,4,3.8,4c1.7,0,2.8-0.8,3.2-2.4H163z M161.1,92.6c-0.1-1.9-1.5-3.5-3.5-3.5c-2.1,0-3.4,1.6-3.5,3.5H161.1z"/>
		<path class="st3" d="M166.6,96c0.1,1.8,1.6,2.4,3.3,2.4c1.3,0,3-0.3,3-1.8c0-1.6-2-1.8-4-2.3c-2-0.4-4-1.1-4-3.5
			c0-2.5,2.4-3.5,4.6-3.5c2.7,0,4.9,0.9,5,3.8h-2c-0.1-1.6-1.5-2.1-2.9-2.1c-1.2,0-2.6,0.3-2.6,1.6c0,1.4,2.1,1.7,4,2.1
			c2,0.4,4,1.1,4,3.5c0,2.9-2.7,3.9-5.2,3.9c-2.8,0-5.1-1.1-5.2-4.2H166.6z"/>
		<path class="st3" d="M192.1,91.6c-0.3-1.5-1.4-2.4-3-2.4c-2.9,0-3.8,2.3-3.8,4.8c0,2.3,1,4.5,3.6,4.5c1.9,0,3.1-1.1,3.4-3h2.1
			c-0.4,3-2.3,4.8-5.4,4.8c-3.8,0-5.8-2.6-5.8-6.3c0-3.7,1.9-6.6,5.8-6.6c2.8,0,5,1.3,5.3,4.2L192.1,91.6L192.1,91.6z"/>
		<path class="st3" d="M201.9,87.3c3.9,0,6,2.8,6,6.4c0,3.6-2.1,6.4-6,6.4c-3.9,0-6-2.8-6-6.4C195.9,90.2,198,87.3,201.9,87.3z
			 M201.9,98.4c2.1,0,3.8-1.7,3.8-4.6c0-3-1.7-4.7-3.8-4.7c-2.1,0-3.8,1.7-3.8,4.7C198,96.8,199.7,98.4,201.9,98.4z"/>
		<path class="st3" d="M210.2,87.6h1.9v1.8h0.1c0.9-1.4,2.3-2.1,4-2.1c1.5,0,2.9,0.6,3.4,2.1c0.8-1.3,2.3-2.1,3.9-2.1
			c2.4,0,4.1,1,4.1,3.6v9h-2v-8.1c0-1.5-0.4-2.7-2.4-2.7c-1.9,0-3.2,1.2-3.2,3.1v7.7h-2v-8.1c0-1.6-0.5-2.7-2.3-2.7
			c-2.4,0-3.3,2.2-3.3,3.1v7.7h-2L210.2,87.6L210.2,87.6z"/>
		<path class="st3" d="M230.5,87.6h2v1.7h0c0.7-1.3,2.2-1.9,3.9-1.9c3.8,0,5.6,3,5.6,6.5c0,3.5-1.9,6.4-5.6,6.4
			c-1.3,0-3.1-0.5-4-1.9h0v6.3h-2L230.5,87.6L230.5,87.6z M236.2,89.1c-2.7,0-3.8,2.3-3.8,4.6c0,2.4,1.1,4.7,3.9,4.7
			c2.8,0,3.7-2.4,3.7-4.8C240,91.4,238.8,89.1,236.2,89.1z"/>
		<path class="st3" d="M255.4,99.9c-0.4,0.2-0.8,0.3-1.5,0.3c-1,0-1.7-0.6-1.7-1.9c-1.1,1.3-2.6,1.9-4.3,1.9c-2.2,0-4.1-1-4.1-3.4
			c0-2.8,2.1-3.4,4.2-3.8c2.2-0.4,4.1-0.3,4.1-1.8c0-1.8-1.5-2-2.7-2c-1.7,0-3,0.5-3.1,2.3h-2c0.1-3,2.5-4.1,5.2-4.1
			c2.2,0,4.6,0.5,4.6,3.4V97c0,0.9,0,1.4,0.6,1.4c0.2,0,0.4,0,0.6-0.1V99.9z M252.1,93.6c-0.8,0.6-2.3,0.6-3.7,0.8
			c-1.3,0.2-2.5,0.7-2.5,2.2c0,1.3,1.1,1.8,2.4,1.8c2.7,0,3.8-1.7,3.8-2.8V93.6z"/>
		<path class="st3" d="M257.3,87.6h1.9v1.9h0.1c0.9-1.5,2.2-2.2,4-2.2c3.2,0,4.2,1.8,4.2,4.5v8.1h-2v-8.3c0-1.5-1-2.5-2.5-2.5
			c-2.5,0-3.6,1.6-3.6,3.8v6.9h-2L257.3,87.6L257.3,87.6z"/>
		<path class="st3" d="M275.3,101.6c-0.9,2.4-1.8,3.3-3.6,3.3c-0.5,0-1-0.1-1.4-0.2v-1.9c0.4,0.1,0.8,0.3,1.2,0.3
			c0.8,0,1.3-0.4,1.7-1.1l0.8-2.1l-4.9-12.2h2.3l3.6,10.1h0l3.5-10.1h2.1L275.3,101.6z"/>
	</g>
</g>
</svg>
